<svg width="266" height="178" viewBox="0 0 266 178" fill="none" xmlns="http://www.w3.org/2000/svg">
<rect width="266" height="178" fill="white"/>
<path d="M60.6442 99.111V86.6029L54.3902 96.9667H52.782L46.528 86.7816V99.2003H43.1329V80.1702H45.9919L53.4967 92.6783L60.9122 80.1702H63.9499V99.111H60.6442Z" fill="#2F6AE1"/>
<path d="M81.9971 84.6374L75.2071 100.272C74.5817 101.881 73.7776 102.953 72.8841 103.578C71.9907 104.204 70.9186 104.561 69.5784 104.561C68.8637 104.561 68.149 104.472 67.4342 104.204C66.7195 103.935 66.1834 103.667 65.7367 103.221L67.0768 100.719C67.4342 100.987 67.7916 101.255 68.2383 101.434C68.685 101.613 69.1317 101.702 69.5784 101.702C70.2038 101.702 70.6506 101.523 71.0973 101.255C71.4547 100.987 71.812 100.451 72.1694 99.7364L72.4374 99.2003L66.0941 84.6374H69.5784L74.1349 95.3585L78.6914 84.6374H81.9971Z" fill="#2F6AE1"/>
<path d="M102.367 80.1702V99.111H99.6871V90.7127H88.7872V99.111H86.1069V80.1702H88.7872V88.3004H99.6871V80.1702H102.367Z" fill="#21175D"/>
<path d="M120.236 92.7676H108.621C108.8 94.0184 109.336 95.0012 110.319 95.8053C111.302 96.6093 112.463 96.9667 113.893 96.9667C115.59 96.9667 117.02 96.4307 118.003 95.2692L119.432 96.9667C118.807 97.6815 118.003 98.3069 117.02 98.6642C116.037 99.0216 114.965 99.2896 113.803 99.2896C112.285 99.2896 110.944 99.0216 109.783 98.3962C108.621 97.7708 107.728 96.8774 107.103 95.8053C106.477 94.6438 106.12 93.393 106.12 92.0528C106.12 90.6234 106.388 89.3726 107.013 88.3004C107.639 87.2283 108.532 86.3349 109.604 85.7095C110.676 85.0841 111.927 84.8161 113.267 84.8161C114.607 84.8161 115.858 85.0841 116.93 85.7095C118.003 86.3349 118.807 87.2283 119.432 88.3004C120.057 89.4619 120.325 90.7127 120.325 92.1422C120.325 92.2315 120.236 92.4996 120.236 92.7676ZM110.051 87.9431C109.247 88.6578 108.711 89.7299 108.532 90.8914H117.734C117.556 89.6406 117.109 88.6578 116.216 87.9431C115.412 87.139 114.339 86.7816 113.089 86.7816C111.927 86.7816 110.944 87.2283 110.051 87.9431Z" fill="#21175D"/>
<path d="M133.191 86.0669C134.263 87.0496 134.799 88.4791 134.799 90.4447V99.111H132.297V97.2347C131.851 97.8602 131.225 98.3962 130.421 98.7536C129.617 99.111 128.634 99.2896 127.562 99.2896C125.954 99.2896 124.703 98.9323 123.72 98.1282C122.738 97.3241 122.291 96.3413 122.291 95.0905C122.291 93.8397 122.738 92.8569 123.631 92.0528C124.524 91.2488 126.043 90.8914 128.009 90.8914H132.119V90.3553C132.119 89.1939 131.761 88.3898 131.136 87.7644C130.51 87.139 129.528 86.8709 128.277 86.8709C127.473 86.8709 126.579 87.0496 125.775 87.3177C124.971 87.5857 124.256 87.9431 123.72 88.4791L122.648 86.5136C123.363 85.8882 124.256 85.4415 125.329 85.1734C126.401 84.8161 127.473 84.7267 128.634 84.7267C130.6 84.6374 132.119 85.0841 133.191 86.0669ZM130.6 96.6093C131.315 96.1626 131.851 95.5372 132.208 94.7331V92.6783H128.188C125.954 92.6783 124.882 93.393 124.882 94.9118C124.882 95.6266 125.15 96.1626 125.686 96.6093C126.222 97.0561 127.026 97.2347 128.009 97.2347C128.992 97.2347 129.885 97.0561 130.6 96.6093Z" fill="#21175D"/>
<path d="M138.909 79.0088H141.5V99.111H138.909V79.0088Z" fill="#21175D"/>
<path d="M154.097 98.2175C153.74 98.5749 153.293 98.7536 152.668 98.9323C152.132 99.111 151.506 99.2003 150.97 99.2003C149.541 99.2003 148.379 98.8429 147.575 98.0388C146.771 97.2348 146.414 96.1626 146.414 94.7331V86.8709H144.001V84.7267H146.414V81.5997H149.005V84.7267H153.114V86.8709H149.005V94.6438C149.005 95.4479 149.183 95.9839 149.63 96.4307C149.987 96.8774 150.613 97.0561 151.327 97.0561C152.132 97.0561 152.757 96.788 153.382 96.3413L154.097 98.2175Z" fill="#21175D"/>
<path d="M168.571 86.1562C169.643 87.2283 170.179 88.7472 170.179 90.802V99.0216H167.588V91.0701C167.588 89.6406 167.231 88.6578 166.605 87.9431C165.98 87.2283 164.997 86.8709 163.746 86.8709C162.317 86.8709 161.245 87.3177 160.441 88.1218C159.636 88.9258 159.19 90.0873 159.19 91.6955V99.111H156.599V79.0088H159.19V86.7816C159.726 86.0669 160.441 85.5308 161.334 85.1734C162.227 84.8161 163.21 84.6374 164.282 84.6374C166.069 84.6374 167.499 85.1734 168.571 86.1562Z" fill="#21175D"/>
<path d="M177.416 83.4759V84.7267H181.615V86.8709H177.416V99.111H174.825V86.8709H172.412V84.7267H174.825V83.4759C174.825 82.0464 175.271 80.885 176.075 80.0809C176.88 79.2768 178.041 78.8301 179.56 78.8301C180.096 78.8301 180.721 78.9194 181.168 79.0088C181.704 79.1874 182.061 79.3661 182.508 79.6342L181.704 81.5997C181.079 81.153 180.453 80.885 179.739 80.885C178.13 80.9743 177.416 81.8677 177.416 83.4759ZM186.261 81.5104C185.903 81.153 185.724 80.7956 185.724 80.3489C185.724 79.9022 185.903 79.4555 186.261 79.1874C186.618 78.8301 186.975 78.6514 187.511 78.6514C188.047 78.6514 188.405 78.8301 188.762 79.0981C189.12 79.4555 189.298 79.8128 189.298 80.2596C189.298 80.7063 189.12 81.153 188.762 81.5104C188.405 81.8677 188.047 82.0464 187.511 82.0464C186.975 82.0464 186.529 81.8677 186.261 81.5104ZM186.171 84.7267H188.762V99.0216H186.171V84.7267Z" fill="#21175D"/>
<path d="M205.112 86.1562C206.184 87.2283 206.72 88.7472 206.72 90.802V99.0216H204.129V91.0701C204.129 89.6406 203.772 88.6578 203.146 87.9431C202.521 87.2283 201.538 86.8709 200.287 86.8709C198.858 86.8709 197.786 87.3177 196.982 88.1218C196.178 88.9258 195.731 90.0873 195.731 91.6955V99.111H193.14V84.8161H195.642V86.9603C196.178 86.2455 196.892 85.6201 197.786 85.2628C198.679 84.9054 199.662 84.6374 200.824 84.6374C202.61 84.6374 204.04 85.1734 205.112 86.1562Z" fill="#21175D"/>
<path d="M224.678 79.0088V99.111H222.177V96.8774C221.64 97.6815 220.836 98.3069 219.943 98.6642C219.05 99.111 218.067 99.2896 216.995 99.2896C215.565 99.2896 214.404 99.0216 213.242 98.3962C212.081 97.7708 211.277 96.8774 210.651 95.8053C210.026 94.7331 209.758 93.393 209.758 91.9635C209.758 90.534 210.026 89.2832 210.651 88.1218C211.277 86.9603 212.17 86.1562 213.242 85.5308C214.314 84.9054 215.565 84.6374 216.995 84.6374C218.067 84.6374 218.96 84.8161 219.854 85.2628C220.747 85.6201 221.462 86.2455 221.998 86.9603V79.0088H224.678ZM219.764 96.3413C220.479 95.8946 221.104 95.3585 221.462 94.5545C221.908 93.7504 222.087 92.9463 222.087 91.8742C222.087 90.8914 221.908 89.998 221.462 89.1939C221.015 88.3898 220.479 87.8537 219.764 87.407C219.049 86.9603 218.245 86.7816 217.263 86.7816C216.369 86.7816 215.476 86.9603 214.761 87.407C214.046 87.8537 213.421 88.3898 213.064 89.1939C212.617 89.998 212.438 90.802 212.438 91.8742C212.438 92.8569 212.617 93.7504 213.064 94.5545C213.51 95.3585 214.046 95.8946 214.761 96.3413C215.476 96.788 216.28 96.9667 217.263 96.9667C218.156 96.9667 218.96 96.788 219.764 96.3413Z" fill="#21175D"/>
<path d="M242.1 92.7676H230.485C230.664 94.0184 231.2 95.0012 232.183 95.8053C233.166 96.6093 234.327 96.9667 235.757 96.9667C237.454 96.9667 238.884 96.4307 239.867 95.2692L241.296 96.9667C240.671 97.6815 239.867 98.3069 238.884 98.6642C237.901 99.0216 236.829 99.2896 235.667 99.2896C234.149 99.2896 232.808 99.0216 231.647 98.3962C230.485 97.7708 229.592 96.8774 228.967 95.8053C228.341 94.6438 227.984 93.393 227.984 92.0528C227.984 90.6234 228.252 89.3726 228.877 88.3004C229.503 87.2283 230.396 86.3349 231.468 85.7095C232.54 85.0841 233.791 84.8161 235.131 84.8161C236.471 84.8161 237.722 85.0841 238.794 85.7095C239.867 86.3349 240.671 87.2283 241.296 88.3004C241.921 89.4619 242.189 90.7127 242.189 92.1422C242.189 92.2315 242.1 92.4996 242.1 92.7676ZM231.915 87.9431C231.111 88.6578 230.575 89.7299 230.396 90.8914H239.598C239.42 89.6406 238.973 88.6578 238.08 87.9431C237.276 87.139 236.203 86.7816 234.953 86.7816C233.791 86.7816 232.808 87.2283 231.915 87.9431Z" fill="#21175D"/>
<path d="M249.784 85.2628C250.677 84.8161 251.749 84.6374 253 84.6374V87.139C252.821 87.139 252.643 87.139 252.375 87.139C250.945 87.139 249.873 87.5857 249.069 88.3898C248.265 89.1939 247.907 90.4447 247.907 91.9635V99.111H245.316V84.8161H247.818V87.2283C248.265 86.3349 248.89 85.7095 249.784 85.2628Z" fill="#21175D"/>
<path d="M24.4602 81.689C24.1028 81.689 23.8348 81.421 23.8348 81.0636C23.3881 74.6309 29.9101 73.0228 29.9995 73.0228C30.3569 72.9334 30.7142 73.1121 30.7142 73.4695C30.8036 73.8269 30.6249 74.1842 30.2675 74.1842C29.9995 74.2736 24.7282 75.6137 25.0856 81.0636C25.0856 81.421 24.8176 81.689 24.4602 81.689Z" fill="#21175D"/>
<path d="M23.7455 78.026C23.7455 78.026 20.8865 78.8301 19.0103 77.4899C17.1341 76.1498 16.7767 73.2908 16.7767 73.2908C16.7767 73.2908 19.6357 72.4867 21.5119 73.8269C23.3881 75.167 23.7455 78.026 23.7455 78.026Z" fill="#19D3C5"/>
<path d="M23.8349 80.885C23.5668 80.7956 23.1201 80.7063 22.7628 80.5276C21.8693 80.0809 18.7423 79.2768 16.3301 80.7063C14.5432 81.6891 13.4711 83.5653 13.1137 86.1562C12.399 91.1594 15.1686 95.5372 18.2063 97.7708C19.8144 98.9323 21.4226 99.379 22.4947 98.8429C22.6734 98.7536 23.5668 98.4856 24.3709 98.4856C25.175 98.4856 26.0685 98.8429 26.2471 98.8429C26.6045 98.9323 26.9619 98.9323 27.3193 98.9323C28.302 98.9323 29.3742 98.4856 30.5356 97.6815C33.5733 95.5372 36.2536 91.0701 35.6282 86.0669C35.2708 83.4759 34.1987 81.5997 32.5012 80.6169C30.0889 79.2768 26.9619 79.9915 26.0685 80.4382C25.7111 80.6169 25.3537 80.7063 25.0857 80.7956C24.7283 80.9743 23.8349 80.885 23.8349 80.885Z" fill="#EF5050"/>
</svg>
